<svg width="11" height="7" viewBox="0 0 11 7" fill="none" xmlns="http://www.w3.org/2000/svg">
<rect width="11" height="7" fill="#161C23"/>
<rect width="1100" height="800" transform="translate(-955 -287)" fill="white"/>
<rect x="-908" y="-235" width="1000" height="700" fill="#0A1018"/>
<mask id="path-2-outside-1_0_1" maskUnits="userSpaceOnUse" x="-0.179688" y="-4.37114e-07" width="11" height="7" fill="black">
<rect fill="white" x="-0.179688" y="-4.37114e-07" width="11" height="7"/>
<path d="M5.7251 5.72734L9.69011 1.76102C9.86371 1.58698 9.86371 1.30501 9.69011 1.13053C9.51651 0.95649 9.23454 0.95649 9.06094 1.13053L5.41053 4.78225L1.76013 1.13097C1.58652 0.956929 1.30455 0.956929 1.13051 1.13097C0.956912 1.30501 0.956912 1.58742 1.13051 1.76146L5.09552 5.72778C5.26733 5.89918 5.55373 5.89918 5.7251 5.72734Z"/>
</mask>
<path d="M5.7251 5.72734L9.69011 1.76102C9.86371 1.58698 9.86371 1.30501 9.69011 1.13053C9.51651 0.95649 9.23454 0.95649 9.06094 1.13053L5.41053 4.78225L1.76013 1.13097C1.58652 0.956929 1.30455 0.956929 1.13051 1.13097C0.956912 1.30501 0.956912 1.58742 1.13051 1.76146L5.09552 5.72778C5.26733 5.89918 5.55373 5.89918 5.7251 5.72734Z" fill="#C78D4E"/>
<path d="M5.7251 5.72734L9.69011 1.76102C9.86371 1.58698 9.86371 1.30501 9.69011 1.13053C9.51651 0.95649 9.23454 0.95649 9.06094 1.13053L5.41053 4.78225L1.76013 1.13097C1.58652 0.956929 1.30455 0.956929 1.13051 1.13097C0.956912 1.30501 0.956912 1.58742 1.13051 1.76146L5.09552 5.72778C5.26733 5.89918 5.55373 5.89918 5.7251 5.72734Z" stroke="#E09D54" stroke-width="0.6" mask="url(#path-2-outside-1_0_1)"/>
<mask id="path-3-inside-2_0_1" fill="white">
<path d="M-646 -19C-646 -20.1046 -645.105 -21 -644 -21H53C54.1046 -21 55 -20.1046 55 -19V24C55 25.1046 54.1046 26 53 26H-644C-645.105 26 -646 25.1046 -646 24V-19Z"/>
</mask>
<path d="M-646 -19C-646 -20.1046 -645.105 -21 -644 -21H53C54.1046 -21 55 -20.1046 55 -19V24C55 25.1046 54.1046 26 53 26H-644C-645.105 26 -646 25.1046 -646 24V-19Z" stroke="#161C23" stroke-width="2" mask="url(#path-3-inside-2_0_1)"/>
</svg>
