<svg width="32" height="28" viewBox="0 0 32 28" fill="none" xmlns="http://www.w3.org/2000/svg">
<rect width="31.3939" height="28" rx="3" fill="#1A212B"/>
<path d="M19.905 20.0667L12.4699 20.1964C11.787 20.2083 11.221 19.6623 11.2091 18.9788L11.1082 13.1959C11.0963 12.5124 11.6429 11.947 12.3258 11.9351L19.7609 11.8054C20.4439 11.7935 21.0098 12.3395 21.0217 13.023L21.1226 18.8059C21.1345 19.4894 20.588 20.0548 19.905 20.0667ZM12.3402 12.7612C12.1127 12.7652 11.9304 12.9535 11.9343 13.1815L12.0352 18.9644C12.0392 19.1924 12.228 19.3742 12.4555 19.3703L19.8906 19.2406C20.1181 19.2366 20.3005 19.0483 20.2965 18.8203L20.1956 13.0374C20.1916 12.8094 20.0029 12.6276 19.7754 12.6316L12.3402 12.7612Z" fill="#F5CEA3"/>
<path d="M18.9504 12.646C18.7224 12.6499 18.5341 12.4681 18.5301 12.2401L18.4941 10.1748C18.4703 8.80833 17.339 7.7158 15.9725 7.73964C14.6061 7.76347 13.5135 8.89479 13.5374 10.2612L13.5734 12.3266C13.5774 12.5546 13.3955 12.7429 13.1675 12.7468C12.9395 12.7508 12.7512 12.569 12.7473 12.341L12.7112 10.2757C12.6794 8.45317 14.1356 6.9453 15.9581 6.91351C17.7806 6.88172 19.2885 8.3379 19.3202 10.1604L19.3563 12.2257C19.3602 12.4537 19.1784 12.642 18.9504 12.646Z" fill="#F5CEA3"/>
</svg>
