<svg width="20" height="20" viewBox="0 0 20 20" fill="none" xmlns="http://www.w3.org/2000/svg">
<mask id="path-1-inside-1_1_1080" fill="white">
<path d="M10 20C15.5228 20 20 15.5228 20 10C20 4.47715 15.5228 0 10 0C4.47715 0 0 4.47715 0 10C0 15.5228 4.47715 20 10 20Z"/>
</mask>
<path d="M10 20C15.5228 20 20 15.5228 20 10C20 4.47715 15.5228 0 10 0C4.47715 0 0 4.47715 0 10C0 15.5228 4.47715 20 10 20Z" stroke="#4848F6" mask="url(#path-1-inside-1_1_1080)"/>
<mask id="path-2-inside-2_1_1080" fill="white">
<path d="M9.53186 13.333C9.31722 13.547 9.02647 13.6672 8.72336 13.6672C8.42024 13.6672 8.12949 13.547 7.91486 13.333L5.41086 10.833C5.19656 10.6187 5.07617 10.3281 5.07617 10.025C5.07617 9.72194 5.19656 9.4313 5.41086 9.217C5.62515 9.00271 5.9158 8.88232 6.21886 8.88232C6.52192 8.88232 6.81256 9.00271 7.02686 9.217L8.51886 10.707C8.57315 10.7607 8.64646 10.7909 8.72286 10.7909C8.79925 10.7909 8.87256 10.7607 8.92686 10.707L12.9679 6.671C13.0739 6.56483 13.1998 6.48058 13.3384 6.42307C13.477 6.36556 13.6256 6.33591 13.7756 6.33582C13.9257 6.33572 14.0743 6.36519 14.213 6.42253C14.3517 6.47987 14.4777 6.56396 14.5839 6.67C14.69 6.77604 14.7743 6.90196 14.8318 7.04056C14.8893 7.17916 14.9189 7.32773 14.919 7.47779C14.9191 7.62785 14.8897 7.77646 14.8323 7.91513C14.775 8.05381 14.6909 8.17983 14.5849 8.286L9.53186 13.333Z"/>
</mask>
<path d="M9.53186 13.333C9.31722 13.547 9.02647 13.6672 8.72336 13.6672C8.42024 13.6672 8.12949 13.547 7.91486 13.333L5.41086 10.833C5.19656 10.6187 5.07617 10.3281 5.07617 10.025C5.07617 9.72194 5.19656 9.4313 5.41086 9.217C5.62515 9.00271 5.9158 8.88232 6.21886 8.88232C6.52192 8.88232 6.81256 9.00271 7.02686 9.217L8.51886 10.707C8.57315 10.7607 8.64646 10.7909 8.72286 10.7909C8.79925 10.7909 8.87256 10.7607 8.92686 10.707L12.9679 6.671C13.0739 6.56483 13.1998 6.48058 13.3384 6.42307C13.477 6.36556 13.6256 6.33591 13.7756 6.33582C13.9257 6.33572 14.0743 6.36519 14.213 6.42253C14.3517 6.47987 14.4777 6.56396 14.5839 6.67C14.69 6.77604 14.7743 6.90196 14.8318 7.04056C14.8893 7.17916 14.9189 7.32773 14.919 7.47779C14.9191 7.62785 14.8897 7.77646 14.8323 7.91513C14.775 8.05381 14.6909 8.17983 14.5849 8.286L9.53186 13.333Z" fill="#4848F7" stroke="#0A1018" mask="url(#path-2-inside-2_1_1080)"/>
</svg>
