<svg width="9" height="9" viewBox="0 0 9 9" fill="none" xmlns="http://www.w3.org/2000/svg">
<path d="M6.95989 3.1049L6.94263 5.31536C6.95854 5.66343 7.25118 5.93586 7.58275 5.92804L7.58304 5.92803C7.93651 5.92011 8.20602 5.63879 8.19878 5.2853L8.19876 5.2853L8.19874 5.28216L8.16442 0.951025C8.15673 0.615006 7.86834 0.339608 7.53327 0.34751L7.53327 0.347569L7.52786 0.347579L3.05116 0.356162C2.69885 0.365283 2.43055 0.646139 2.43778 0.998838C2.44467 1.33551 2.73341 1.61171 3.06895 1.6038L3.06895 1.6036L3.07892 1.60376L5.45035 1.64242L6.02301 1.65176L5.6268 2.06534L0.604642 7.30764C0.361129 7.56183 0.367444 7.95689 0.61357 8.19268C0.863039 8.43167 1.26694 8.42311 1.50721 8.1723L6.52937 2.93L6.9648 2.47548L6.95989 3.1049Z" fill="#CAA276" stroke="#161C23" stroke-width="0.5"/>
</svg>
